<svg width="629" height="94" viewBox="0 0 629 94" fill="none" xmlns="http://www.w3.org/2000/svg">
<path d="M0.0285072 92V0.479996H6.17251V86.368H48.2845V92H0.0285072ZM124.314 83.424C118.682 89.9947 110.106 93.28 98.5855 93.28C87.0655 93.28 78.4895 89.9947 72.8575 83.424C67.2255 76.8533 64.4095 67.7653 64.4095 56.16V8.92799H70.2975V56.16C70.2975 77.408 79.7268 88.032 98.5855 88.032C117.444 88.032 126.874 77.408 126.874 56.16V8.92799H132.762V56.16C132.762 67.7653 129.946 76.8533 124.314 83.424ZM203.766 87.648H200.31L176.118 28.896C175.094 26.592 174.07 23.904 173.046 20.832C173.046 20.9173 172.96 21.3867 172.79 22.24C172.704 23.0933 172.576 24.2453 172.406 25.696C172.235 27.0613 172.064 28.2133 171.894 29.152L162.294 92H156.534L170.102 8.41599H173.558L199.414 69.728C201.462 74.848 202.486 77.536 202.486 77.792C203.083 76 204.235 73.3547 205.942 69.856L234.742 8.41599H238.198L250.87 92H244.726L235.638 28.896C235.04 24.7147 234.742 21.9413 234.742 20.576L231.03 29.024L203.766 87.648ZM275.423 92V8.92799H281.311V92H275.423ZM314.607 92V8.41599H317.423L371.951 71.136C373.914 73.3547 375.706 75.5733 377.327 77.792C379.034 79.9253 379.93 81.0347 380.016 81.12C379.845 79.072 379.759 75.0613 379.759 69.088V8.92799H385.647V92.512H382.832L327.279 28.768L320.239 20.192C320.41 21.8987 320.495 25.9093 320.495 32.224V92H314.607ZM423.013 63.2L411.109 92H405.093L439.909 8.41599H443.365L478.438 92H471.91L459.877 63.2H423.013ZM441.317 17.888C440.037 21.728 438.885 24.928 437.861 27.488L425.061 58.208H457.829L445.157 27.616C443.195 22.8373 441.915 19.5947 441.317 17.888ZM497.852 92V9.312C505.191 8.71466 511.42 8.41599 516.54 8.41599C524.391 8.41599 530.876 10.464 535.996 14.56C541.116 18.5707 543.676 24.3307 543.676 31.84C543.676 36.8747 542.226 41.5253 539.324 45.792C536.423 50.0587 533.138 53.5147 529.468 56.16C539.623 69.6427 545.895 77.7067 548.284 80.352C553.148 85.3867 558.439 88.2453 564.156 88.928L564.028 92.896C559.25 92.8107 555.367 92.128 552.38 90.848C549.394 89.4827 546.407 87.2213 543.42 84.064C540.519 80.9067 534.076 72.416 524.092 58.592C517.18 58.592 510.396 58.3787 503.74 57.952V92H497.852ZM520.892 53.728C524.22 53.728 527.804 51.5093 531.644 47.072C535.484 42.6347 537.404 37.472 537.404 31.584C537.404 25.696 535.399 21.216 531.388 18.144C527.378 15.072 522.172 13.536 515.772 13.536C512.359 13.536 508.348 13.7067 503.74 14.048V53.088C509.884 53.5147 515.602 53.728 520.892 53.728ZM596.708 92H590.948V62.304L559.588 8.92799H566.628L590.82 50.144C592.698 53.8987 593.764 55.904 594.02 56.16C594.532 55.0507 595.599 53.088 597.22 50.272L621.412 8.92799H628.068L596.708 62.56V92Z" fill="#5832BF"/>
</svg>
